<svg width="1080" height="1080" viewBox="0 0 1080 1080" fill="none" xmlns="http://www.w3.org/2000/svg">
<rect width="1080" height="1080" fill="#171515"/>
<path d="M629.094 348.078C629.769 344.956 629.094 341.582 627.154 338.84L546.542 225.501C544.981 223.308 542.45 222 539.834 222C537.219 222 534.646 223.308 533.085 225.501L452.472 338.84C450.532 341.582 449.899 344.914 450.532 348.078C450.532 348.246 450.616 348.415 450.659 348.584C450.996 349.976 451.587 351.283 452.472 352.507L533.085 465.846C534.646 468.039 537.177 469.304 539.834 469.304C542.492 469.304 545.023 467.997 546.542 465.846L627.154 352.507C628.04 351.283 628.63 349.976 628.968 348.584L629.094 348.12V348.078ZM623.189 343.944C616.018 345.462 609.311 345.462 603.236 343.944C600.916 343.353 598.765 342.552 596.782 341.582C599.861 334.495 603.236 327.451 606.906 320.576L622.387 342.341C622.767 342.847 623.062 343.438 623.231 344.028L623.189 343.944ZM569.447 423.496L567.043 426.871C565.777 405.612 562.529 384.395 557.256 363.642C553.755 349.723 549.283 335.845 543.968 322.263C552.489 321.841 560.968 320.154 568.856 317.201C574.678 328.801 580.837 338.039 589.315 343.902C578.812 369.463 572.105 396.206 569.447 423.454V423.496ZM512.626 426.871L510.222 423.496C507.522 396.248 500.857 369.505 490.353 343.944C498.832 338.081 504.991 328.801 510.812 317.201C518.743 320.154 527.179 321.841 535.7 322.263C530.385 335.845 525.956 349.723 522.413 363.642C517.182 384.395 513.892 405.612 512.626 426.871ZM603.067 315.177C598.933 322.811 595.095 330.573 591.678 338.418C584.169 332.808 578.685 323.866 572.991 312.224C562.36 290.332 554.725 266.416 550.296 240.939L603.067 315.135V315.177ZM541.733 228.918L542.661 230.225C546.626 259.498 554.556 286.958 566.326 311.929C549.537 318.045 530.132 318.045 513.343 311.929C525.112 286.958 533.085 259.498 537.008 230.225L537.936 228.918C538.822 227.652 540.889 227.652 541.775 228.918H541.733ZM529.373 240.939C524.944 266.416 517.308 290.332 506.678 312.224C501.026 323.866 495.5 332.808 487.991 338.418C484.574 330.573 480.778 322.769 476.601 315.135L529.373 240.897V240.939ZM457.324 342.257L472.805 320.492C476.475 327.409 479.849 334.453 482.929 341.497C480.946 342.468 478.795 343.269 476.475 343.86C470.4 345.42 463.693 345.42 456.522 343.86C456.691 343.269 456.986 342.678 457.366 342.172L457.324 342.257ZM466.773 350.988C470.611 350.988 474.323 350.524 477.909 349.638C480.482 348.963 482.929 348.078 485.165 346.981C493.939 368.451 499.929 390.722 503.093 413.457L458.167 350.271C461.12 350.777 463.988 350.988 466.815 350.988H466.773ZM541.733 462.471C540.847 463.737 538.78 463.737 537.894 462.471L518.152 434.716C518.996 411.348 522.328 387.938 528.107 365.118C531.271 352.633 535.194 340.19 539.834 327.957C544.474 340.19 548.398 352.675 551.561 365.118C557.341 387.938 560.673 411.348 561.517 434.716L541.775 462.471H541.733ZM621.544 350.229L576.618 413.415C579.74 390.68 585.772 368.409 594.546 346.939C596.824 348.035 599.229 348.921 601.802 349.596C605.345 350.482 609.057 350.946 612.938 350.946C615.722 350.946 618.633 350.735 621.544 350.229Z" fill="#BBB399"/>
<path d="M604.839 702.352C603.658 701.93 602.392 702.141 601.085 702.942C599.397 704.123 598.09 704.925 596.993 705.304C595.896 705.684 594.715 705.895 593.407 705.895C589.569 705.895 586.405 704.081 583.916 700.369C581.427 696.7 579.276 690.541 577.42 681.894L571.894 656.459C570.206 648.993 567.844 643.004 564.765 638.49C561.643 634.019 557.509 630.476 552.11 628.03C550.929 627.524 550.422 626.933 550.507 626.216C550.549 625.499 551.224 624.908 552.321 624.613C561.981 621.07 569.953 615.165 576.281 606.813C582.608 598.461 585.772 589.013 585.772 578.51C585.772 569.736 583.663 561.975 579.276 555.226C574.931 548.477 568.899 543.205 561.264 539.408C553.628 535.612 544.854 533.672 535.025 533.672H484.279C481.79 533.672 480.524 534.558 480.524 536.371C480.524 537.848 481.621 538.86 483.73 539.366L489.467 540.379C493.011 541.053 495.289 541.981 496.301 543.078C497.398 544.259 497.904 546.621 497.904 550.038V696.531C497.904 700.074 497.398 702.31 496.301 703.491C495.204 704.672 492.926 705.515 489.467 706.19L483.73 707.245C481.579 707.751 480.524 708.721 480.524 710.24C480.524 712.053 481.79 712.939 484.279 712.939H535.025C537.514 712.939 538.78 711.885 538.78 709.944C538.78 708.468 537.894 707.54 536.08 707.245L526.8 705.768C522.159 704.967 519.165 703.87 517.815 702.605C516.507 701.339 515.832 699.02 515.832 695.476V633.218C515.832 631.404 516.507 629.843 517.815 628.578C519.165 627.313 520.978 626.68 523.341 626.68C530.174 626.68 535.532 627.481 539.455 629.169C543.336 630.856 546.457 634.019 548.735 638.617C551.013 643.257 552.996 650.048 554.852 659.075L560.589 686.703C564.554 705.6 573.834 715.132 588.303 715.132C593.154 715.132 597.415 714.078 601 711.969C604.67 709.944 606.526 707.456 606.526 704.63C606.526 703.322 605.936 702.436 604.755 701.972V702.267L604.839 702.352ZM532.537 620.732C521.358 620.732 515.79 616.177 515.79 607.024V549.996C515.79 543.331 520.219 539.999 529.035 539.999C540.889 539.999 550.127 543.416 556.919 550.333C563.668 557.209 567.085 566.826 567.085 579.142C567.085 591.459 564.132 601.878 558.311 609.428C552.489 616.978 543.884 620.775 532.579 620.775V620.69L532.537 620.732Z" fill="#BBB399"/>
<path d="M237.843 708.594L234.089 707.877C230.925 707.202 228.563 705.979 227.086 704.123C225.61 702.309 224.218 699.062 223.121 694.38L183.553 536.414C183.173 534.726 182.667 533.714 181.95 533.208C181.233 532.702 180.389 532.491 179.588 532.491C178.913 532.491 178.196 532.702 177.479 533.208C176.762 533.714 176.129 534.811 175.876 536.414L137.067 692.102C135.886 696.742 134.494 700.369 132.806 702.942C131.119 705.515 128.588 707.118 125.298 707.793L121.544 708.51C119.181 709.016 118 710.113 118 711.716C118 713.319 119.266 714.204 121.754 714.204H156.724C159.087 714.204 160.268 713.319 160.268 711.505C160.268 710.029 158.876 709.016 156.007 708.51L152.253 708.004C144.744 706.949 142.256 701.761 144.744 692.355L153.265 658.948C154.447 654.645 157.146 652.494 161.491 652.494H187.729C192.201 652.494 194.985 654.603 195.955 658.948L205.446 697.543C206.248 701.213 206.332 703.786 205.615 705.22C204.898 706.696 203.042 707.624 200.258 707.919L195.491 708.426C192.623 708.594 191.23 709.607 191.23 711.42C191.23 713.234 192.412 714.12 194.774 714.12H237.506C239.995 714.12 241.26 713.319 241.26 711.631C241.26 709.944 240.079 708.932 237.717 708.426L237.885 708.594H237.843ZM188.278 645.028H160.774C158.116 645.028 157.02 643.636 157.568 640.768L174.315 574.039H175.58L191.61 640.768C192.116 643.636 191.02 645.028 188.404 645.028H188.32H188.278Z" fill="#BBB399"/>
<path d="M470.696 660.002C468.713 660.002 467.49 661.099 466.941 663.208L463.946 677.929C461.584 689.571 457.45 697.501 451.587 701.761C445.723 706.021 438.552 708.13 430.2 708.13C421.847 708.13 416.406 706.823 413.326 704.165C410.205 701.508 408.686 697.206 408.686 691.216V628.704C408.686 626.342 409.867 625.161 412.229 625.161H424.505C428.343 625.161 431.254 626.047 433.406 627.861C435.473 629.675 437.075 633.471 438.257 639.292L440.745 651.524C441.42 654.013 442.812 655.109 445.006 654.73C446.82 654.35 447.706 652.958 447.706 650.47V594.412C447.706 591.923 446.82 590.531 445.006 590.151C442.855 589.856 441.42 590.869 440.745 593.357L438.257 605.8C436.569 613.646 432.098 617.527 424.716 617.527H412.229C409.867 617.527 408.686 616.346 408.686 613.983V553.961C408.686 549.11 410.036 545.735 412.567 543.879C415.14 541.981 419.78 541.011 426.487 541.011C436.485 541.011 444.331 543.669 450.026 548.857C455.678 554.045 459.433 562.312 461.289 573.617L462.765 582.854C463.06 585.005 464.242 586.06 466.309 586.06C468.797 586.06 469.894 584.668 469.515 581.8L467.532 540.505C467.152 536.709 465.085 534.768 461.289 534.768H346.297C343.935 534.768 342.753 535.57 342.753 537.257C342.753 538.944 344.019 539.957 346.508 540.463L349.207 540.969C354.565 541.77 356.041 547.043 353.679 556.618L324.91 671.433C324.741 672.614 324.319 673.205 323.518 673.205C322.716 673.205 322.168 672.614 321.915 671.433L310.652 624.613C309.175 618.159 308.416 612.212 308.543 606.813C308.585 601.414 309.597 595.677 311.411 589.519L320.902 556.913C322.59 551.303 324.108 547.17 325.543 544.681C326.935 542.192 328.748 540.885 330.9 540.716L333.6 540.505C336.384 540.21 337.86 539.197 337.86 537.51C337.86 535.696 336.468 534.811 333.6 534.811H309.85C307.488 534.811 306.307 535.696 306.307 537.51C306.307 538.987 307.572 539.999 310.061 540.505L312.761 541.011C314.237 541.18 315.208 542.277 315.629 544.217C316.093 546.199 315.334 550.375 313.52 556.66L304.535 587.072C304.155 588.253 303.649 588.844 302.932 588.844C302.215 588.844 301.582 588.253 301.329 587.072L292.808 551.43C292.007 547.76 291.754 545.187 292.218 543.753C292.682 542.277 293.905 541.349 296.098 541.053L298.798 540.547C301.287 540.041 302.552 539.071 302.552 537.552C302.552 535.739 301.371 534.853 299.009 534.853H264.756C262.267 534.853 261.002 535.654 261.002 537.341C261.002 539.029 262.183 540.041 264.545 540.547L268.3 541.264C270.113 541.644 271.632 542.741 272.644 544.807C273.699 546.832 274.88 550.164 276.019 554.804L286.565 597.364C288.252 603.818 289.054 609.723 289.054 614.996C289.054 620.268 288.168 626.131 286.354 632.416L275.091 672.994C274.712 674.175 274.205 674.766 273.488 674.766C272.771 674.766 272.138 674.175 271.885 672.994L242.483 551.388C241.682 547.718 241.597 545.229 242.315 543.753C243.032 542.361 244.888 541.391 247.672 540.885L250.372 540.378C252.86 539.872 254.126 538.902 254.126 537.384C254.126 535.57 252.945 534.684 250.583 534.684H210.382C207.893 534.684 206.627 535.486 206.627 537.173C206.627 538.86 207.809 539.872 210.171 540.378L213.925 541.096C217.258 541.77 219.662 542.994 221.054 544.85C222.446 546.663 223.754 549.911 224.935 554.593L264.419 712.559C264.714 714.247 265.305 715.259 266.022 715.765C266.739 716.271 267.498 716.482 268.131 716.482C268.764 716.482 269.396 716.271 269.945 715.765C270.535 715.259 271.042 714.162 271.548 712.559L293.019 635.327C293.399 634.146 293.905 633.555 294.791 633.513C295.592 633.471 296.141 634.019 296.267 635.327L315.545 712.559C315.84 714.247 316.347 715.259 317.022 715.765C317.696 716.271 318.371 716.482 319.004 716.482C319.637 716.482 320.354 716.271 320.987 715.765C321.662 715.259 322.168 714.162 322.463 712.559L361.23 556.871C362.58 551.092 364.014 547.001 365.575 544.554C365.785 544.175 366.165 543.669 366.756 543.078C371.818 537.805 383.376 538.312 388.607 543.753C388.986 544.175 389.282 544.47 389.408 544.681C390.21 545.946 390.674 548.055 390.674 551.134V697.627C390.674 701.171 390.167 703.406 389.071 704.587C387.974 705.768 385.696 706.612 382.237 707.287L376.5 708.299C374.391 708.805 373.294 709.775 373.294 711.294C373.294 713.108 374.56 713.993 377.048 713.993H464.748C468.586 713.993 470.611 712.095 470.991 708.257L473.48 663.925C473.859 661.057 472.805 659.665 470.485 659.665H470.696L470.864 659.749L470.696 660.002Z" fill="#BBB399"/>
<path d="M701.945 531.183C700.933 531.183 699.878 531.478 698.824 532.069C697.727 532.659 695.955 533.25 693.593 533.883C691.146 534.558 687.265 534.937 681.95 534.937H626.226C620.869 534.937 617.03 534.558 614.625 533.883C612.179 533.208 610.534 532.575 609.479 532.069C608.424 531.478 607.412 531.183 606.273 531.183C603.616 531.183 602.055 533.081 601.802 536.92L599.524 581.968C599.144 584.837 600.241 586.229 602.73 586.229C604.712 586.229 605.893 585.132 606.273 583.023L607.539 574.798C609.353 562.987 613.276 554.425 619.308 549.152C625.34 543.795 631.372 541.138 637.531 541.138C640.695 541.138 642.762 541.644 643.774 542.614C644.829 543.626 645.251 545.271 645.251 547.591V697.079C645.251 700.622 644.66 702.942 643.479 704.208C642.298 705.473 640.104 706.317 636.73 706.865L625.467 708.637C623.357 708.805 622.261 709.818 622.261 711.631C622.261 713.445 623.526 714.331 626.015 714.331H682.288C684.777 714.331 686.042 713.445 686.042 711.631C686.042 709.818 684.945 708.763 682.836 708.637L671.573 706.865C668.409 706.359 666.216 705.473 664.95 704.208C663.685 702.942 663.136 700.622 663.136 697.079V547.591C663.136 545.229 663.643 543.626 664.613 542.614C665.667 541.56 667.734 541.138 670.856 541.138C677.184 541.138 683.342 543.795 689.374 549.152C695.407 554.509 699.245 562.987 700.848 574.798L702.114 583.023C702.409 585.132 703.59 586.229 705.657 586.229C708.146 586.229 709.243 584.837 708.863 581.968L706.585 536.92C706.206 533.123 704.771 531.183 702.114 531.183H701.945Z" fill="#BBB399"/>
<path d="M814.617 558.938C809.26 550.586 803.143 544.048 796.225 539.366C789.307 534.726 781.798 532.406 773.868 532.406C765.937 532.406 758.344 534.768 751.342 539.366C744.34 544.006 738.181 550.502 732.95 558.938C727.719 567.374 723.628 577.118 720.675 588.253C717.722 599.389 716.33 611.41 716.33 624.36C716.33 637.309 717.806 649.415 720.675 660.635C723.628 671.855 727.677 681.599 732.95 689.951C738.181 698.218 744.34 704.756 751.342 709.522C758.344 714.289 765.811 716.651 773.868 716.651C781.925 716.651 789.307 714.289 796.225 709.522C803.143 704.756 809.26 698.218 814.617 689.951C819.932 681.683 824.108 671.897 826.977 660.635C829.93 649.415 831.322 637.351 831.322 624.36C831.322 611.368 829.845 599.389 826.977 588.253C824.024 577.118 819.932 567.374 814.617 558.938ZM801.625 688.643C794.918 702.773 785.679 709.818 773.91 709.818C762.141 709.818 753.029 702.773 746.238 688.643C739.446 674.512 736.072 653.127 736.072 624.402C736.072 595.677 739.446 574.249 746.238 560.288C752.987 546.284 762.183 539.282 773.91 539.282C785.637 539.282 795.044 546.326 801.625 560.288C808.205 574.249 811.622 595.677 811.622 624.402C811.622 653.127 808.29 674.597 801.625 688.643Z" fill="#BBB399"/>
<path d="M957.999 534.937H922.269C919.781 534.937 918.515 535.823 918.515 537.637C918.515 539.113 919.612 540.125 921.721 540.632L926.192 541.349C928.976 541.855 931.339 543.12 933.195 545.229C935.009 547.254 935.895 551.008 935.895 556.323V669.156C935.895 670.21 935.515 670.758 934.798 670.927C934.081 671.096 933.406 670.716 932.984 669.662L874.012 540.421C872.324 536.751 869.456 534.895 865.237 534.895H838.451C835.962 534.895 834.697 535.781 834.697 537.595C834.697 539.071 835.793 540.083 837.902 540.589L843.639 541.602C847.478 542.277 849.967 543.205 850.979 544.301C852.076 545.482 852.582 547.844 852.582 551.261V692.735C852.582 697.374 851.781 700.96 850.093 703.28C848.406 705.684 845.453 707.245 841.108 707.919L837.902 708.426C835.751 708.594 834.697 709.607 834.697 711.42C834.697 713.234 835.962 714.12 838.451 714.12H874.18C876.669 714.12 877.935 713.234 877.935 711.42C877.935 709.607 876.838 708.552 874.729 708.426L871.523 707.919C867.304 707.245 864.478 705.726 862.917 703.28C861.314 700.875 860.555 697.332 860.555 692.735V564.717C860.555 563.409 860.935 562.692 861.652 562.439C862.369 562.27 863.044 562.819 863.466 563.915L931.17 710.408C932.984 714.373 935.262 716.44 937.919 716.44C939.607 716.44 940.914 715.849 942.011 714.668C943.108 713.487 943.614 711.463 943.614 708.426V556.238C943.614 550.881 944.458 547.254 946.103 545.187C947.79 543.162 950.743 541.728 955.088 541.096L958.294 540.589C960.403 540.421 961.5 539.408 961.5 537.595C961.5 535.781 960.234 534.895 957.746 534.895H957.83L957.999 534.937Z" fill="#BBB399"/>
</svg>
