<svg xmlns="http://www.w3.org/2000/svg" viewBox="338 262 404 556" fill="#BBB399" role="img" aria-label="Awerton">
  <path d="M739.432 545.414C740.939 538.447 739.431 530.915 735.097 524.795L555.011 271.815C551.524 266.919 545.87 264 540.027 264C534.184 264 528.436 266.919 524.95 271.815L344.863 524.795C340.529 530.915 339.115 538.352 340.529 545.414C340.529 545.79 340.717 546.167 340.811 546.543C341.565 549.65 342.884 552.569 344.863 555.299L524.95 808.28C528.436 813.175 534.09 816 540.027 816C545.964 816 551.618 813.081 555.011 808.28L735.097 555.299C737.076 552.569 738.395 549.65 739.149 546.543L739.432 545.508V545.414ZM726.239 536.281C710.219 539.67 695.235 539.67 681.665 536.281C676.482 534.963 671.676 533.174 667.247 531.009C674.126 515.191 681.665 499.469 689.863 484.122L724.448 532.703C725.296 533.833 725.956 535.151 726.333 536.469L726.239 536.281ZM606.181 713.847L600.81 721.38C597.983 673.928 590.726 626.57 578.947 580.249C571.125 549.179 561.136 518.204 549.262 487.888C568.298 486.946 587.24 483.181 604.862 476.59C617.867 502.481 631.625 523.1 650.567 536.187C627.102 593.241 612.118 652.933 606.181 713.754V713.847ZM479.245 721.38L473.873 713.847C467.842 653.026 452.953 593.336 429.488 536.281C448.429 523.194 462.188 502.481 475.193 476.59C492.909 483.181 511.756 486.946 530.792 487.888C518.918 518.204 509.024 549.179 501.108 580.249C489.422 626.57 482.072 673.928 479.245 721.38ZM681.288 471.976C672.053 489.018 663.477 506.341 655.844 523.853C639.07 511.331 626.819 491.372 614.097 465.386C590.35 416.523 573.293 363.14 563.398 306.273L681.288 471.883V471.976ZM544.268 279.441L546.341 282.359C555.199 347.699 572.916 408.991 599.208 464.727C561.702 478.379 518.353 478.379 480.847 464.727C507.139 408.991 524.949 347.699 533.713 282.359L535.787 279.441C537.766 276.616 542.383 276.616 544.362 279.441H544.268ZM516.657 306.273C506.762 363.14 489.705 416.523 465.957 465.386C453.33 491.372 440.985 511.331 424.211 523.853C416.578 506.341 408.096 488.924 398.767 471.883L516.657 306.179V306.273ZM355.701 532.515L390.285 483.934C398.484 499.374 406.023 515.097 412.902 530.82C408.473 532.986 403.667 534.775 398.484 536.093C384.914 539.577 369.93 539.577 353.91 536.093C354.287 534.775 354.947 533.457 355.795 532.327L355.701 532.515ZM376.81 551.91C385.385 551.91 393.678 550.874 401.688 548.897C407.436 547.391 412.902 545.414 417.897 542.966C437.498 590.888 450.88 640.599 457.947 691.346L357.585 550.309C364.182 551.439 370.59 551.91 376.904 551.91H376.81ZM544.268 800.748C542.289 803.572 537.671 803.572 535.692 800.748L491.59 738.797C493.474 686.638 500.919 634.385 513.829 583.45C520.897 555.582 529.661 527.808 540.027 500.504C550.393 527.808 559.157 555.676 566.225 583.45C579.135 634.385 586.58 686.638 588.465 738.797L544.362 800.748H544.268ZM722.564 550.309L622.201 691.346C629.175 640.599 642.651 590.888 662.252 542.966C667.341 545.414 672.712 547.391 678.461 548.897C686.377 550.874 694.669 551.91 703.339 551.91C709.559 551.91 716.061 551.439 722.564 550.309Z"/>
</svg>
